<mxfile host="app.diagrams.net" agent="Mozilla/5.0 (Windows NT 10.0; Win64; x64) AppleWebKit/537.36 (KHTML, like Gecko) Chrome/131.0.0.0 Safari/537.36" version="26.0.5">
  <diagram id="yDBRZiaTPx-2oKyrs-rQ" name="Страница 1">
    <mxGraphModel dx="2261" dy="780" grid="0" gridSize="10" guides="1" tooltips="1" connect="1" arrows="1" fold="1" page="1" pageScale="1" pageWidth="827" pageHeight="1169" math="0" shadow="0">
      <root>
        <mxCell id="0" />
        <mxCell id="1" parent="0" />
        <mxCell id="eij8mgXqUikKY7fD8WlG-15" value="&lt;p class=&quot;paragraph&quot; style=&quot;margin: 0cm ; vertical-align: baseline&quot;&gt;&lt;span class=&quot;normaltextrun&quot;&gt;&lt;b&gt;&lt;span style=&quot;font-size: 11.0pt ; font-family: &amp;quot;arial&amp;quot; , sans-serif&quot;&gt;Вариант 3&lt;/span&gt;&lt;/b&gt;&lt;/span&gt;&lt;span class=&quot;normaltextrun&quot;&gt;&lt;span style=&quot;font-size: 11.0pt ; font-family: &amp;quot;arial&amp;quot; , sans-serif&quot;&gt;&amp;nbsp;&lt;/span&gt;&lt;/span&gt;&lt;/p&gt;&lt;p class=&quot;paragraph&quot; style=&quot;margin: 0cm ; vertical-align: baseline&quot;&gt;&lt;span class=&quot;eop&quot;&gt;&lt;span style=&quot;background-color: transparent; font-size: 14.6667px;&quot;&gt;&lt;font face=&quot;arial, sans-serif&quot;&gt;Система должна описывать порядок получения водительских прав.&amp;nbsp;&amp;nbsp;&lt;/font&gt;&lt;/span&gt;&lt;span style=&quot;font-size: 11.0pt ; font-family: &amp;quot;arial&amp;quot; , sans-serif&quot;&gt;&amp;nbsp;&lt;/span&gt;&lt;/span&gt;&lt;span style=&quot;font-size: 9.0pt ; font-family: &amp;quot;segoe ui&amp;quot; , sans-serif&quot;&gt;&lt;/span&gt;&lt;/p&gt;" style="text;html=1;align=center;verticalAlign=middle;resizable=0;points=[];autosize=1;" parent="1" vertex="1">
          <mxGeometry y="42" width="491" height="47" as="geometry" />
        </mxCell>
        <mxCell id="eij8mgXqUikKY7fD8WlG-13" value="Экзамены" style="swimlane;childLayout=stackLayout;horizontal=1;startSize=30;horizontalStack=0;rounded=1;fontSize=14;fontStyle=0;strokeWidth=2;resizeParent=0;resizeLast=1;shadow=0;dashed=0;align=center;" parent="1" vertex="1">
          <mxGeometry x="337" y="143.5" width="200" height="120" as="geometry" />
        </mxCell>
        <mxCell id="eij8mgXqUikKY7fD8WlG-14" value="ID&#xa;ID Категории&#xa;Тип экзамена VARCHAR&#xa;Дата DATE" style="align=left;strokeColor=none;fillColor=none;spacingLeft=4;fontSize=12;verticalAlign=top;resizable=0;rotatable=0;part=1;" parent="eij8mgXqUikKY7fD8WlG-13" vertex="1">
          <mxGeometry y="30" width="200" height="90" as="geometry" />
        </mxCell>
        <mxCell id="eij8mgXqUikKY7fD8WlG-18" value="Нотация IDF3" style="text;html=1;align=center;verticalAlign=middle;resizable=0;points=[];autosize=1;" parent="1" vertex="1">
          <mxGeometry x="80" y="120" width="90" height="20" as="geometry" />
        </mxCell>
        <mxCell id="eij8mgXqUikKY7fD8WlG-19" value="Нотация Data Vault" style="text;html=1;align=center;verticalAlign=middle;resizable=0;points=[];autosize=1;" parent="1" vertex="1">
          <mxGeometry x="138" y="421" width="120" height="20" as="geometry" />
        </mxCell>
        <mxCell id="eij8mgXqUikKY7fD8WlG-30" value="Связь_Кандидат_Экзамен" style="swimlane;childLayout=stackLayout;horizontal=1;startSize=30;horizontalStack=0;rounded=1;fontSize=14;fontStyle=0;strokeWidth=2;resizeParent=0;resizeLast=1;shadow=0;dashed=0;align=center;" parent="1" vertex="1">
          <mxGeometry x="307" y="457" width="240" height="80" as="geometry" />
        </mxCell>
        <mxCell id="eij8mgXqUikKY7fD8WlG-31" value="ID Кандидата&#xa;ID Экзамена" style="align=left;strokeColor=none;fillColor=none;spacingLeft=4;fontSize=12;verticalAlign=top;resizable=0;rotatable=0;part=1;" parent="eij8mgXqUikKY7fD8WlG-30" vertex="1">
          <mxGeometry y="30" width="240" height="50" as="geometry" />
        </mxCell>
        <mxCell id="eij8mgXqUikKY7fD8WlG-9" value="Кандидаты" style="swimlane;childLayout=stackLayout;horizontal=1;startSize=30;horizontalStack=0;rounded=1;fontSize=14;fontStyle=0;strokeWidth=2;resizeParent=0;resizeLast=1;shadow=0;dashed=0;align=center;" parent="1" vertex="1">
          <mxGeometry x="-213" y="146" width="200" height="139" as="geometry" />
        </mxCell>
        <mxCell id="eij8mgXqUikKY7fD8WlG-10" value="ID&#xa;Имя VARCHAR&#xa;Фамилия VARCHAR&#xa;Возраст INT&#xa;Адрес VARCHAR&#xa;Паспортные данные VARCHAR" style="align=left;strokeColor=none;fillColor=none;spacingLeft=4;fontSize=12;verticalAlign=top;resizable=0;rotatable=0;part=1;" parent="eij8mgXqUikKY7fD8WlG-9" vertex="1">
          <mxGeometry y="30" width="200" height="109" as="geometry" />
        </mxCell>
        <mxCell id="eij8mgXqUikKY7fD8WlG-11" value="Категории" style="swimlane;childLayout=stackLayout;horizontal=1;startSize=30;horizontalStack=0;rounded=1;fontSize=14;fontStyle=0;strokeWidth=2;resizeParent=0;resizeLast=1;shadow=0;dashed=0;align=center;" parent="1" vertex="1">
          <mxGeometry x="584" y="134" width="160" height="120" as="geometry" />
        </mxCell>
        <mxCell id="eij8mgXqUikKY7fD8WlG-12" value="ID&#xa;НазваниеVARCHAR&#xa;" style="align=left;strokeColor=none;fillColor=none;spacingLeft=4;fontSize=12;verticalAlign=top;resizable=0;rotatable=0;part=1;" parent="eij8mgXqUikKY7fD8WlG-11" vertex="1">
          <mxGeometry y="30" width="160" height="90" as="geometry" />
        </mxCell>
        <mxCell id="eij8mgXqUikKY7fD8WlG-32" value="Хаб_Экзамен" style="swimlane;childLayout=stackLayout;horizontal=1;startSize=30;horizontalStack=0;rounded=1;fontSize=14;fontStyle=0;strokeWidth=2;resizeParent=0;resizeLast=1;shadow=0;dashed=0;align=center;" parent="1" vertex="1">
          <mxGeometry x="600" y="462" width="160" height="80" as="geometry" />
        </mxCell>
        <mxCell id="eij8mgXqUikKY7fD8WlG-33" value="ID&#xa;" style="align=left;strokeColor=none;fillColor=none;spacingLeft=4;fontSize=12;verticalAlign=top;resizable=0;rotatable=0;part=1;" parent="eij8mgXqUikKY7fD8WlG-32" vertex="1">
          <mxGeometry y="30" width="160" height="50" as="geometry" />
        </mxCell>
        <mxCell id="eij8mgXqUikKY7fD8WlG-36" value="Сателита_Экзамен" style="swimlane;childLayout=stackLayout;horizontal=1;startSize=30;horizontalStack=0;rounded=1;fontSize=14;fontStyle=0;strokeWidth=2;resizeParent=0;resizeLast=1;shadow=0;dashed=0;align=center;" parent="1" vertex="1">
          <mxGeometry x="580" y="596" width="200" height="93" as="geometry" />
        </mxCell>
        <mxCell id="eij8mgXqUikKY7fD8WlG-37" value="ID&#xa;Тип экзамена VARCHAR&#xa;Дата DATE" style="align=left;strokeColor=none;fillColor=none;spacingLeft=4;fontSize=12;verticalAlign=top;resizable=0;rotatable=0;part=1;" parent="eij8mgXqUikKY7fD8WlG-36" vertex="1">
          <mxGeometry y="30" width="200" height="63" as="geometry" />
        </mxCell>
        <mxCell id="eij8mgXqUikKY7fD8WlG-50" value="" style="fontSize=12;html=1;endArrow=ERoneToMany;dashed=1;" parent="1" source="eij8mgXqUikKY7fD8WlG-33" target="eij8mgXqUikKY7fD8WlG-31" edge="1">
          <mxGeometry width="100" height="100" relative="1" as="geometry">
            <mxPoint x="644" y="1052" as="sourcePoint" />
            <mxPoint x="744" y="952" as="targetPoint" />
          </mxGeometry>
        </mxCell>
        <mxCell id="eij8mgXqUikKY7fD8WlG-52" value="" style="fontSize=12;html=1;endArrow=ERoneToMany;dashed=1;exitX=0.5;exitY=1;exitDx=0;exitDy=0;entryX=0.5;entryY=0;entryDx=0;entryDy=0;" parent="1" source="eij8mgXqUikKY7fD8WlG-43" target="eij8mgXqUikKY7fD8WlG-24" edge="1">
          <mxGeometry width="100" height="100" relative="1" as="geometry">
            <mxPoint x="664" y="1072" as="sourcePoint" />
            <mxPoint x="764" y="972" as="targetPoint" />
          </mxGeometry>
        </mxCell>
        <mxCell id="eij8mgXqUikKY7fD8WlG-54" value="" style="fontSize=12;html=1;endArrow=ERoneToMany;dashed=1;entryX=0.5;entryY=0;entryDx=0;entryDy=0;exitX=0.5;exitY=1;exitDx=0;exitDy=0;" parent="1" source="eij8mgXqUikKY7fD8WlG-33" target="eij8mgXqUikKY7fD8WlG-36" edge="1">
          <mxGeometry width="100" height="100" relative="1" as="geometry">
            <mxPoint x="664" y="1072" as="sourcePoint" />
            <mxPoint x="764" y="972" as="targetPoint" />
          </mxGeometry>
        </mxCell>
        <mxCell id="eij8mgXqUikKY7fD8WlG-42" value="Хаб_Кандидат" style="swimlane;childLayout=stackLayout;horizontal=1;startSize=30;horizontalStack=0;rounded=1;fontSize=14;fontStyle=0;strokeWidth=2;resizeParent=0;resizeLast=1;shadow=0;dashed=0;align=center;" parent="1" vertex="1">
          <mxGeometry x="303" y="582" width="240" height="80" as="geometry" />
        </mxCell>
        <mxCell id="eij8mgXqUikKY7fD8WlG-43" value="ID&#xa;" style="align=left;strokeColor=none;fillColor=none;spacingLeft=4;fontSize=12;verticalAlign=top;resizable=0;rotatable=0;part=1;" parent="eij8mgXqUikKY7fD8WlG-42" vertex="1">
          <mxGeometry y="30" width="240" height="50" as="geometry" />
        </mxCell>
        <mxCell id="eij8mgXqUikKY7fD8WlG-24" value="Сателита_Кандидат" style="swimlane;childLayout=stackLayout;horizontal=1;startSize=30;horizontalStack=0;rounded=1;fontSize=14;fontStyle=0;strokeWidth=2;resizeParent=0;resizeLast=1;shadow=0;dashed=0;align=center;" parent="1" vertex="1">
          <mxGeometry x="303" y="715" width="240" height="131" as="geometry" />
        </mxCell>
        <mxCell id="eij8mgXqUikKY7fD8WlG-25" value="ID&#xa;Имя VARCHAR&#xa;Фамилия VARCHAR&#xa;Возраст INT&#xa;Адрес VARCHAR&#xa;Паспортные данные VARCHAR" style="align=left;strokeColor=none;fillColor=none;spacingLeft=4;fontSize=12;verticalAlign=top;resizable=0;rotatable=0;part=1;" parent="eij8mgXqUikKY7fD8WlG-24" vertex="1">
          <mxGeometry y="30" width="240" height="101" as="geometry" />
        </mxCell>
        <mxCell id="79YEv3HbTpaVEv2zhENr-1" value="Медицинские комиссии" style="swimlane;childLayout=stackLayout;horizontal=1;startSize=30;horizontalStack=0;rounded=1;fontSize=14;fontStyle=0;strokeWidth=2;resizeParent=0;resizeLast=1;shadow=0;dashed=0;align=center;" vertex="1" parent="1">
          <mxGeometry x="-221" y="312" width="200" height="120" as="geometry" />
        </mxCell>
        <mxCell id="79YEv3HbTpaVEv2zhENr-2" value="ID&#xa;ID Кандидата&#xa;Результат VARCHAR&#xa;Дата DATE" style="align=left;strokeColor=none;fillColor=none;spacingLeft=4;fontSize=12;verticalAlign=top;resizable=0;rotatable=0;part=1;" vertex="1" parent="79YEv3HbTpaVEv2zhENr-1">
          <mxGeometry y="30" width="200" height="90" as="geometry" />
        </mxCell>
        <mxCell id="79YEv3HbTpaVEv2zhENr-3" value="Результаты экзаменов" style="swimlane;childLayout=stackLayout;horizontal=1;startSize=30;horizontalStack=0;rounded=1;fontSize=14;fontStyle=0;strokeWidth=2;resizeParent=0;resizeLast=1;shadow=0;dashed=0;align=center;" vertex="1" parent="1">
          <mxGeometry x="70" y="153" width="200" height="120" as="geometry" />
        </mxCell>
        <mxCell id="79YEv3HbTpaVEv2zhENr-4" value="ID&#xa;ID Кандидата&#xa;ID Экзамена&#xa;Оценка за экзамен INT&#xa;Успешность сдачи VARCHAR" style="align=left;strokeColor=none;fillColor=none;spacingLeft=4;fontSize=12;verticalAlign=top;resizable=0;rotatable=0;part=1;" vertex="1" parent="79YEv3HbTpaVEv2zhENr-3">
          <mxGeometry y="30" width="200" height="90" as="geometry" />
        </mxCell>
        <mxCell id="79YEv3HbTpaVEv2zhENr-5" value="" style="endArrow=ERmany;html=1;rounded=0;exitX=1.005;exitY=0.344;exitDx=0;exitDy=0;entryX=0;entryY=0.5;entryDx=0;entryDy=0;endFill=0;exitPerimeter=0;" edge="1" parent="1" source="eij8mgXqUikKY7fD8WlG-10" target="79YEv3HbTpaVEv2zhENr-3">
          <mxGeometry width="50" height="50" relative="1" as="geometry">
            <mxPoint x="387" y="372" as="sourcePoint" />
            <mxPoint x="437" y="322" as="targetPoint" />
          </mxGeometry>
        </mxCell>
        <mxCell id="79YEv3HbTpaVEv2zhENr-6" value="" style="endArrow=ERmany;html=1;rounded=0;exitX=0.99;exitY=0.356;exitDx=0;exitDy=0;exitPerimeter=0;endFill=0;" edge="1" parent="1" source="eij8mgXqUikKY7fD8WlG-14" target="eij8mgXqUikKY7fD8WlG-12">
          <mxGeometry width="50" height="50" relative="1" as="geometry">
            <mxPoint x="387" y="372" as="sourcePoint" />
            <mxPoint x="437" y="322" as="targetPoint" />
          </mxGeometry>
        </mxCell>
        <mxCell id="79YEv3HbTpaVEv2zhENr-7" value="" style="endArrow=none;html=1;rounded=0;entryX=0;entryY=0.5;entryDx=0;entryDy=0;startArrow=ERmany;startFill=0;exitX=0.985;exitY=0.417;exitDx=0;exitDy=0;exitPerimeter=0;" edge="1" parent="1" source="79YEv3HbTpaVEv2zhENr-4" target="eij8mgXqUikKY7fD8WlG-14">
          <mxGeometry width="50" height="50" relative="1" as="geometry">
            <mxPoint x="387" y="372" as="sourcePoint" />
            <mxPoint x="437" y="322" as="targetPoint" />
          </mxGeometry>
        </mxCell>
        <mxCell id="79YEv3HbTpaVEv2zhENr-8" value="" style="endArrow=ERmany;html=1;rounded=0;exitX=0.5;exitY=0;exitDx=0;exitDy=0;entryX=0.46;entryY=0.986;entryDx=0;entryDy=0;entryPerimeter=0;endFill=0;" edge="1" parent="1" source="79YEv3HbTpaVEv2zhENr-1" target="eij8mgXqUikKY7fD8WlG-10">
          <mxGeometry width="50" height="50" relative="1" as="geometry">
            <mxPoint x="387" y="372" as="sourcePoint" />
            <mxPoint x="437" y="322" as="targetPoint" />
          </mxGeometry>
        </mxCell>
        <mxCell id="79YEv3HbTpaVEv2zhENr-13" value="Сателита_Медицинская комиссия" style="swimlane;childLayout=stackLayout;horizontal=1;startSize=30;horizontalStack=0;rounded=1;fontSize=14;fontStyle=0;strokeWidth=2;resizeParent=0;resizeLast=1;shadow=0;dashed=0;align=center;" vertex="1" parent="1">
          <mxGeometry x="33" y="566" width="240" height="94" as="geometry" />
        </mxCell>
        <mxCell id="79YEv3HbTpaVEv2zhENr-14" value="ID&#xa;Результат VARCHAR&#xa;Дата DATE" style="align=left;strokeColor=none;fillColor=none;spacingLeft=4;fontSize=12;verticalAlign=top;resizable=0;rotatable=0;part=1;" vertex="1" parent="79YEv3HbTpaVEv2zhENr-13">
          <mxGeometry y="30" width="240" height="64" as="geometry" />
        </mxCell>
        <mxCell id="79YEv3HbTpaVEv2zhENr-15" value="" style="fontSize=12;html=1;endArrow=ERoneToMany;dashed=1;entryX=0.5;entryY=1;entryDx=0;entryDy=0;" edge="1" parent="1" target="eij8mgXqUikKY7fD8WlG-31">
          <mxGeometry width="100" height="100" relative="1" as="geometry">
            <mxPoint x="427" y="578" as="sourcePoint" />
            <mxPoint x="557" y="524" as="targetPoint" />
          </mxGeometry>
        </mxCell>
        <mxCell id="79YEv3HbTpaVEv2zhENr-17" value="" style="fontSize=12;html=1;endArrow=ERoneToMany;dashed=1;exitX=0;exitY=0.25;exitDx=0;exitDy=0;" edge="1" parent="1" source="eij8mgXqUikKY7fD8WlG-43" target="79YEv3HbTpaVEv2zhENr-14">
          <mxGeometry width="100" height="100" relative="1" as="geometry">
            <mxPoint x="437" y="588" as="sourcePoint" />
            <mxPoint x="437" y="547" as="targetPoint" />
          </mxGeometry>
        </mxCell>
      </root>
    </mxGraphModel>
  </diagram>
</mxfile>
